<svg width="25" height="22" viewBox="0 0 25 22" fill="none" xmlns="http://www.w3.org/2000/svg">
<path d="M14.8438 20.3125V1.5625H22.6562V20.3125H14.8438Z" fill="#5D5D5D"/>
<path d="M20.3125 0C22.8821 0 25 2.11792 25 4.6875V17.1875C25 19.7571 22.8821 21.875 20.3125 21.875H4.6875C2.11792 21.875 0 19.7571 0 17.1875V4.6875C0 2.11792 2.11792 0 4.6875 0H20.3125ZM20.3125 3.125H4.6875C3.79639 3.125 3.125 3.79639 3.125 4.6875V17.1875C3.125 18.0786 3.79639 18.75 4.6875 18.75H20.3125C21.2036 18.75 21.875 18.0786 21.875 17.1875V4.6875C21.875 3.79639 21.2036 3.125 20.3125 3.125Z" fill="#5D5D5D"/>
<path d="M15.625 1.5625H14.0625V20.3125H15.625V1.5625Z" fill="#5D5D5D"/>
</svg>
