<svg width="198" height="30" viewBox="0 0 198 30" fill="none" xmlns="http://www.w3.org/2000/svg">
<path d="M49.5808 6.32V8.552H42.5008V13.472H48.0208V15.704H42.5008V23H39.7648V6.32H49.5808ZM57.8524 23.216C56.6044 23.216 55.4764 22.936 54.4684 22.376C53.4604 21.8 52.6684 21 52.0924 19.976C51.5164 18.936 51.2284 17.736 51.2284 16.376C51.2284 15.032 51.5244 13.84 52.1164 12.8C52.7084 11.76 53.5164 10.96 54.5404 10.4C55.5644 9.84 56.7084 9.56 57.9724 9.56C59.2364 9.56 60.3804 9.84 61.4044 10.4C62.4284 10.96 63.2364 11.76 63.8284 12.8C64.4204 13.84 64.7164 15.032 64.7164 16.376C64.7164 17.72 64.4124 18.912 63.8044 19.952C63.1964 20.992 62.3644 21.8 61.3084 22.376C60.2684 22.936 59.1164 23.216 57.8524 23.216ZM57.8524 20.84C58.5564 20.84 59.2124 20.672 59.8204 20.336C60.4444 20 60.9484 19.496 61.3324 18.824C61.7164 18.152 61.9084 17.336 61.9084 16.376C61.9084 15.416 61.7244 14.608 61.3564 13.952C60.9884 13.28 60.5004 12.776 59.8924 12.44C59.2844 12.104 58.6284 11.936 57.9244 11.936C57.2204 11.936 56.5644 12.104 55.9564 12.44C55.3644 12.776 54.8924 13.28 54.5404 13.952C54.1884 14.608 54.0124 15.416 54.0124 16.376C54.0124 17.8 54.3724 18.904 55.0924 19.688C55.8284 20.456 56.7484 20.84 57.8524 20.84ZM70.1571 11.696C70.5571 11.024 71.0851 10.504 71.7411 10.136C72.4131 9.752 73.2051 9.56 74.1171 9.56V12.392H73.4211C72.3491 12.392 71.5331 12.664 70.9731 13.208C70.4291 13.752 70.1571 14.696 70.1571 16.04V23H67.4211V9.776H70.1571V11.696ZM92.64 9.56C93.68 9.56 94.608 9.776 95.424 10.208C96.256 10.64 96.904 11.28 97.368 12.128C97.848 12.976 98.088 14 98.088 15.2V23H95.376V15.608C95.376 14.424 95.08 13.52 94.488 12.896C93.896 12.256 93.088 11.936 92.064 11.936C91.04 11.936 90.224 12.256 89.616 12.896C89.024 13.52 88.728 14.424 88.728 15.608V23H86.016V15.608C86.016 14.424 85.72 13.52 85.128 12.896C84.536 12.256 83.728 11.936 82.704 11.936C81.68 11.936 80.864 12.256 80.256 12.896C79.664 13.52 79.368 14.424 79.368 15.608V23H76.632V9.776H79.368V11.288C79.816 10.744 80.384 10.32 81.072 10.016C81.76 9.712 82.496 9.56 83.28 9.56C84.336 9.56 85.28 9.784 86.112 10.232C86.944 10.68 87.584 11.328 88.032 12.176C88.432 11.376 89.056 10.744 89.904 10.28C90.752 9.8 91.664 9.56 92.64 9.56ZM100.658 16.328C100.658 15 100.93 13.824 101.474 12.8C102.034 11.776 102.786 10.984 103.73 10.424C104.69 9.848 105.746 9.56 106.898 9.56C107.938 9.56 108.842 9.768 109.61 10.184C110.394 10.584 111.018 11.088 111.482 11.696V9.776H114.242V23H111.482V21.032C111.018 21.656 110.386 22.176 109.586 22.592C108.786 23.008 107.874 23.216 106.85 23.216C105.714 23.216 104.674 22.928 103.73 22.352C102.786 21.76 102.034 20.944 101.474 19.904C100.93 18.848 100.658 17.656 100.658 16.328ZM111.482 16.376C111.482 15.464 111.29 14.672 110.906 14C110.538 13.328 110.05 12.816 109.442 12.464C108.834 12.112 108.178 11.936 107.474 11.936C106.77 11.936 106.114 12.112 105.506 12.464C104.898 12.8 104.402 13.304 104.018 13.976C103.65 14.632 103.466 15.416 103.466 16.328C103.466 17.24 103.65 18.04 104.018 18.728C104.402 19.416 104.898 19.944 105.506 20.312C106.13 20.664 106.786 20.84 107.474 20.84C108.178 20.84 108.834 20.664 109.442 20.312C110.05 19.96 110.538 19.448 110.906 18.776C111.29 18.088 111.482 17.288 111.482 16.376Z" fill="black"/>
<circle cx="29.5" cy="5.5" r="2.5" fill="black"/>
<path d="M25.7002 26.7998C19.6002 26.7998 14.5004 22.0996 13.9004 16.0996V26.7998C9.30044 26.7998 5.50007 22.1997 5 16.2998V26.7998C2.2 26.7998 0 21.3994 0 14.8994C4.40066e-05 8.3995 2.20042 3 4.90039 3V13.5C5.50038 7.60008 9.1999 3.00013 13.7998 3V13.6992H13.9004C14.5006 7.69942 19.5003 3 25.7002 3V26.7998Z" fill="black"/>
<circle cx="29.5" cy="5.5" r="2.5" fill="black"/>
<path d="M25.7002 26.7998C19.6002 26.7998 14.5004 22.0996 13.9004 16.0996V26.7998C9.30044 26.7998 5.50007 22.1997 5 16.2998V26.7998C2.2 26.7998 0 21.3994 0 14.8994C4.40066e-05 8.3995 2.20042 3 4.90039 3V13.5C5.50038 7.60008 9.1999 3.00013 13.7998 3V13.6992H13.9004C14.5006 7.69942 19.5003 3 25.7002 3V26.7998Z" fill="black"/>
<path d="M122.266 20.792H127.906V23H119.53V6.32H122.266V20.792ZM142.315 16.064C142.315 16.56 142.283 17.008 142.219 17.408H132.115C132.195 18.464 132.587 19.312 133.291 19.952C133.995 20.592 134.859 20.912 135.883 20.912C137.355 20.912 138.395 20.296 139.003 19.064H141.955C141.555 20.28 140.827 21.28 139.771 22.064C138.731 22.832 137.435 23.216 135.883 23.216C134.619 23.216 133.483 22.936 132.475 22.376C131.483 21.8 130.699 21 130.123 19.976C129.563 18.936 129.283 17.736 129.283 16.376C129.283 15.016 129.555 13.824 130.099 12.8C130.659 11.76 131.435 10.96 132.427 10.4C133.435 9.84 134.587 9.56 135.883 9.56C137.131 9.56 138.243 9.832 139.219 10.376C140.195 10.92 140.955 11.688 141.499 12.68C142.043 13.656 142.315 14.784 142.315 16.064ZM139.459 15.2C139.443 14.192 139.083 13.384 138.379 12.776C137.675 12.168 136.803 11.864 135.763 11.864C134.819 11.864 134.011 12.168 133.339 12.776C132.667 13.368 132.267 14.176 132.139 15.2H139.459ZM144.095 16.328C144.095 15 144.367 13.824 144.911 12.8C145.471 11.776 146.223 10.984 147.167 10.424C148.127 9.848 149.183 9.56 150.335 9.56C151.375 9.56 152.279 9.768 153.047 10.184C153.831 10.584 154.455 11.088 154.919 11.696V9.776H157.679V23H154.919V21.032C154.455 21.656 153.823 22.176 153.023 22.592C152.223 23.008 151.311 23.216 150.287 23.216C149.151 23.216 148.111 22.928 147.167 22.352C146.223 21.76 145.471 20.944 144.911 19.904C144.367 18.848 144.095 17.656 144.095 16.328ZM154.919 16.376C154.919 15.464 154.727 14.672 154.343 14C153.975 13.328 153.487 12.816 152.879 12.464C152.271 12.112 151.615 11.936 150.911 11.936C150.207 11.936 149.551 12.112 148.943 12.464C148.335 12.8 147.839 13.304 147.455 13.976C147.087 14.632 146.903 15.416 146.903 16.328C146.903 17.24 147.087 18.04 147.455 18.728C147.839 19.416 148.335 19.944 148.943 20.312C149.567 20.664 150.223 20.84 150.911 20.84C151.615 20.84 152.271 20.664 152.879 20.312C153.487 19.96 153.975 19.448 154.343 18.776C154.727 18.088 154.919 17.288 154.919 16.376ZM164.009 11.696C164.409 11.024 164.937 10.504 165.593 10.136C166.265 9.752 167.057 9.56 167.969 9.56V12.392H167.273C166.201 12.392 165.385 12.664 164.825 13.208C164.281 13.752 164.009 14.696 164.009 16.04V23H161.273V9.776H164.009V11.696ZM177.156 9.56C178.196 9.56 179.124 9.776 179.94 10.208C180.772 10.64 181.42 11.28 181.884 12.128C182.348 12.976 182.58 14 182.58 15.2V23H179.868V15.608C179.868 14.424 179.572 13.52 178.98 12.896C178.388 12.256 177.58 11.936 176.556 11.936C175.532 11.936 174.716 12.256 174.108 12.896C173.516 13.52 173.22 14.424 173.22 15.608V23H170.484V9.776H173.22V11.288C173.668 10.744 174.236 10.32 174.924 10.016C175.628 9.712 176.372 9.56 177.156 9.56Z" fill="#2F6B3F"/>
</svg>
