<svg width="124" height="30" viewBox="0 0 124 30" fill="none" xmlns="http://www.w3.org/2000/svg">
<path d="M49.5808 6.32V8.552H42.5008V13.472H48.0208V15.704H42.5008V23H39.7648V6.32H49.5808ZM57.8524 23.216C56.6044 23.216 55.4764 22.936 54.4684 22.376C53.4604 21.8 52.6684 21 52.0924 19.976C51.5164 18.936 51.2284 17.736 51.2284 16.376C51.2284 15.032 51.5244 13.84 52.1164 12.8C52.7084 11.76 53.5164 10.96 54.5404 10.4C55.5644 9.84 56.7084 9.56 57.9724 9.56C59.2364 9.56 60.3804 9.84 61.4044 10.4C62.4284 10.96 63.2364 11.76 63.8284 12.8C64.4204 13.84 64.7164 15.032 64.7164 16.376C64.7164 17.72 64.4124 18.912 63.8044 19.952C63.1964 20.992 62.3644 21.8 61.3084 22.376C60.2684 22.936 59.1164 23.216 57.8524 23.216ZM57.8524 20.84C58.5564 20.84 59.2124 20.672 59.8204 20.336C60.4444 20 60.9484 19.496 61.3324 18.824C61.7164 18.152 61.9084 17.336 61.9084 16.376C61.9084 15.416 61.7244 14.608 61.3564 13.952C60.9884 13.28 60.5004 12.776 59.8924 12.44C59.2844 12.104 58.6284 11.936 57.9244 11.936C57.2204 11.936 56.5644 12.104 55.9564 12.44C55.3644 12.776 54.8924 13.28 54.5404 13.952C54.1884 14.608 54.0124 15.416 54.0124 16.376C54.0124 17.8 54.3724 18.904 55.0924 19.688C55.8284 20.456 56.7484 20.84 57.8524 20.84ZM70.1571 11.696C70.5571 11.024 71.0851 10.504 71.7411 10.136C72.4131 9.752 73.2051 9.56 74.1171 9.56V12.392H73.4211C72.3491 12.392 71.5331 12.664 70.9731 13.208C70.4291 13.752 70.1571 14.696 70.1571 16.04V23H67.4211V9.776H70.1571V11.696ZM92.64 9.56C93.68 9.56 94.608 9.776 95.424 10.208C96.256 10.64 96.904 11.28 97.368 12.128C97.848 12.976 98.088 14 98.088 15.2V23H95.376V15.608C95.376 14.424 95.08 13.52 94.488 12.896C93.896 12.256 93.088 11.936 92.064 11.936C91.04 11.936 90.224 12.256 89.616 12.896C89.024 13.52 88.728 14.424 88.728 15.608V23H86.016V15.608C86.016 14.424 85.72 13.52 85.128 12.896C84.536 12.256 83.728 11.936 82.704 11.936C81.68 11.936 80.864 12.256 80.256 12.896C79.664 13.52 79.368 14.424 79.368 15.608V23H76.632V9.776H79.368V11.288C79.816 10.744 80.384 10.32 81.072 10.016C81.76 9.712 82.496 9.56 83.28 9.56C84.336 9.56 85.28 9.784 86.112 10.232C86.944 10.68 87.584 11.328 88.032 12.176C88.432 11.376 89.056 10.744 89.904 10.28C90.752 9.8 91.664 9.56 92.64 9.56ZM100.658 16.328C100.658 15 100.93 13.824 101.474 12.8C102.034 11.776 102.786 10.984 103.73 10.424C104.69 9.848 105.746 9.56 106.898 9.56C107.938 9.56 108.842 9.768 109.61 10.184C110.394 10.584 111.018 11.088 111.482 11.696V9.776H114.242V23H111.482V21.032C111.018 21.656 110.386 22.176 109.586 22.592C108.786 23.008 107.874 23.216 106.85 23.216C105.714 23.216 104.674 22.928 103.73 22.352C102.786 21.76 102.034 20.944 101.474 19.904C100.93 18.848 100.658 17.656 100.658 16.328ZM111.482 16.376C111.482 15.464 111.29 14.672 110.906 14C110.538 13.328 110.05 12.816 109.442 12.464C108.834 12.112 108.178 11.936 107.474 11.936C106.77 11.936 106.114 12.112 105.506 12.464C104.898 12.8 104.402 13.304 104.018 13.976C103.65 14.632 103.466 15.416 103.466 16.328C103.466 17.24 103.65 18.04 104.018 18.728C104.402 19.416 104.898 19.944 105.506 20.312C106.13 20.664 106.786 20.84 107.474 20.84C108.178 20.84 108.834 20.664 109.442 20.312C110.05 19.96 110.538 19.448 110.906 18.776C111.29 18.088 111.482 17.288 111.482 16.376Z" fill="black"/>
<circle cx="29.5" cy="5.5" r="2.5" fill="black"/>
<path d="M25.7002 26.7998C19.6002 26.7998 14.5004 22.0996 13.9004 16.0996V26.7998C9.30044 26.7998 5.50007 22.1997 5 16.2998V26.7998C2.2 26.7998 0 21.3994 0 14.8994C4.40066e-05 8.3995 2.20042 3 4.90039 3V13.5C5.50038 7.60008 9.1999 3.00013 13.7998 3V13.6992H13.9004C14.5006 7.69942 19.5003 3 25.7002 3V26.7998Z" fill="black"/>
<circle cx="29.5" cy="5.5" r="2.5" fill="black"/>
<path d="M25.7002 26.7998C19.6002 26.7998 14.5004 22.0996 13.9004 16.0996V26.7998C9.30044 26.7998 5.50007 22.1997 5 16.2998V26.7998C2.2 26.7998 0 21.3994 0 14.8994C4.40066e-05 8.3995 2.20042 3 4.90039 3V13.5C5.50038 7.60008 9.1999 3.00013 13.7998 3V13.6992H13.9004C14.5006 7.69942 19.5003 3 25.7002 3V26.7998Z" fill="black"/>
</svg>
